<?xml version="1.0" encoding="UTF-8" standalone="no"?>
<!-- Created with Inkscape (http://www.inkscape.org/) -->

<svg
   xmlns:dc="http://purl.org/dc/elements/1.1/"
   xmlns:cc="http://creativecommons.org/ns#"
   xmlns:rdf="http://www.w3.org/1999/02/22-rdf-syntax-ns#"
   xmlns:svg="http://www.w3.org/2000/svg"
   xmlns="http://www.w3.org/2000/svg"
   version="1.1"
   width="189.29376"
   height="15.998"
   id="svg2">
  <defs
     id="defs4" />
  <metadata
     id="metadata7">
    <rdf:RDF>
      <cc:Work
         rdf:about="">
        <dc:format>image/svg+xml</dc:format>
        <dc:type
           rdf:resource="http://purl.org/dc/dcmitype/StillImage" />
        <dc:title></dc:title>
      </cc:Work>
    </rdf:RDF>
  </metadata>
  <g
     transform="translate(-283.05521,-472.30874)"
     id="layer1">
    <g
       id="text2985"
       style="font-size:12px;font-style:normal;font-variant:normal;font-weight:normal;font-stretch:normal;line-height:125%;letter-spacing:0px;word-spacing:0px;fill:#55768D;fill-opacity:1;stroke:none;font-family:Fauna One;-inkscape-font-specification:Fauna One">
      <path
         d="m 289.25601,477.49914 -4.3956,1.8216 4.3956,1.8216 0,0.9504 -5.2008,-2.2308 0,-1.0824 5.2008,-2.2308 0,0.9504"
         id="path3758"
         style="fill:#55768D;fill-opacity:1" />
      <path
         d="m 296.859,483.74274 0,-4.9896 c 0,-0.55439 -0.1012,-0.95039 -0.3036,-1.188 -0.1936,-0.24639 -0.5324,-0.36959 -1.0164,-0.3696 -0.7392,1e-5 -1.4696,0.32561 -2.1912,0.9768 l 0,5.1744 0.924,0.0924 0,0.6864 -2.8908,0 0,-0.6864 0.924,-0.0924 0,-5.9796 -0.924,-0.1056 0,-0.6864 1.3992,0 c 0.2728,1e-5 0.4092,0.13201 0.4092,0.396 l 0,0.5148 c 0.836,-0.73039 1.7116,-1.09559 2.6268,-1.0956 0.924,1e-5 1.53999,0.33881 1.848,1.0164 0.82719,-0.67759 1.64119,-1.01639 2.442,-1.0164 0.80959,1e-5 1.38599,0.19361 1.7292,0.5808 0.34319,0.38721 0.51479,0.98121 0.5148,1.782 l 0,3.9468 c -10e-6,0.484 0.18919,0.726 0.5676,0.726 0.22879,0 0.41359,-0.0264 0.5544,-0.0792 l 0.1188,0.792 c -0.34321,0.1144 -0.68201,0.1716 -1.0164,0.1716 -0.84481,0 -1.26721,-0.4972 -1.2672,-1.4916 l 0,-4.0656 c -10e-6,-0.55439 -0.1012,-0.95039 -0.3036,-1.188 -0.19361,-0.24639 -0.53241,-0.36959 -1.0164,-0.3696 -0.71281,1e-5 -1.42561,0.29041 -2.1384,0.8712 0.0352,0.28161 0.0528,0.51041 0.0528,0.6864 l 0,4.5936 0.9108,0.0924 0,0.6864 -1.5444,0 c -0.27281,0 -0.4092,-0.1276 -0.4092,-0.3828"
         id="path3760"
         style="fill:#55768D;fill-opacity:1" />
      <path
         d="m 309.41611,482.81874 0,-0.1848 c -0.572,1.1176 -1.4696,1.6764 -2.6928,1.6764 -0.5896,0 -1.0604,-0.1804 -1.4124,-0.5412 -0.352,-0.3608 -0.528,-0.8536 -0.528,-1.4784 0,-0.8536 0.352,-1.496 1.056,-1.9272 0.704,-0.4312 1.8964,-0.6468 3.5772,-0.6468 l 0,-0.5544 c 0,-0.75679 -0.1364,-1.27599 -0.4092,-1.5576 -0.2728,-0.28159 -0.7172,-0.42239 -1.3332,-0.4224 -0.6072,10e-6 -1.2892,0.21121 -2.046,0.6336 l -0.3432,-0.792 c 0.9064,-0.42239 1.7688,-0.63359 2.5872,-0.6336 1.276,1e-5 2.0724,0.44881 2.3892,1.3464 0.132,0.36961 0.198,0.81841 0.198,1.3464 l 0,3.6168 c 0,0.484 0.1848,0.726 0.5544,0.726 0.1232,0 0.3036,-0.0264 0.5412,-0.0792 l 0.1188,0.792 c -0.3432,0.1144 -0.6776,0.1716 -1.0032,0.1716 -0.836,0 -1.254,-0.4972 -1.254,-1.4916 m 0,-2.4288 c -2.4288,0 -3.6432,0.6072 -3.6432,1.8216 0,0.4048 0.11,0.7216 0.33,0.9504 0.2288,0.22 0.5456,0.33 0.9504,0.33 0.6336,0 1.1792,-0.2552 1.6368,-0.7656 0.4576,-0.5104 0.6996,-1.2364 0.726,-2.178 l 0,-0.1584"
         id="path3762"
         style="fill:#55768D;fill-opacity:1" />
      <path
         d="m 314.80605,476.98434 0,5.7156 c 0,0.484 0.1936,0.726 0.5808,0.726 0.1496,0 0.33,-0.0264 0.5412,-0.0792 l 0.132,0.792 c -0.3608,0.1144 -0.7304,0.1716 -1.1088,0.1716 -0.7832,0 -1.1748,-0.4972 -1.1748,-1.4916 l 0,-5.4516 -0.792,-0.1056 0,-0.6864 1.4256,0 c 0.264,1e-5 0.396,0.13641 0.396,0.4092 m -0.5016,-1.6368 c -0.176,1e-5 -0.3344,-0.066 -0.4752,-0.198 -0.132,-0.13199 -0.198,-0.28599 -0.198,-0.462 0,-0.18479 0.066,-0.34319 0.198,-0.4752 0.1408,-0.14079 0.2992,-0.21119 0.4752,-0.2112 0.1848,10e-6 0.3432,0.0704 0.4752,0.2112 0.132,0.13201 0.198,0.29041 0.198,0.4752 0,0.17601 -0.066,0.33001 -0.198,0.462 -0.132,0.13201 -0.2904,0.19801 -0.4752,0.198"
         id="path3764"
         style="fill:#55768D;fill-opacity:1" />
      <path
         d="m 319.14741,474.37074 0,8.3292 c 0,0.484 0.1892,0.726 0.5676,0.726 0.132,0 0.3168,-0.0264 0.5544,-0.0792 l 0.1188,0.792 c -0.3432,0.1144 -0.682,0.1716 -1.0164,0.1716 -0.8448,0 -1.2672,-0.4972 -1.2672,-1.4916 l 0,-8.0652 -0.792,-0.1056 0,-0.6864 1.4388,0 c 0.264,10e-6 0.396,0.13641 0.396,0.4092"
         id="path3766"
         style="fill:#55768D;fill-opacity:1" />
      <path
         d="m 333.94626,479.12274 c -10e-6,1.1264 -0.31681,2.0416 -0.9504,2.7456 -0.22001,0.2376 -0.49721,0.4312 -0.8316,0.5808 -0.33441,0.1496 -0.70841,0.2244 -1.122,0.2244 -0.90641,0 -1.50041,-0.4224 -1.782,-1.2672 -0.48401,0.7216 -1.13521,1.0824 -1.9536,1.0824 -0.66881,0 -1.17481,-0.2728 -1.518,-0.8184 -0.34321,-0.5456 -0.51481,-1.2144 -0.5148,-2.0064 -1e-5,-0.85359 0.18479,-1.59719 0.5544,-2.2308 0.18479,-0.31679 0.43999,-0.56759 0.7656,-0.7524 0.33439,-0.19359 0.75239,-0.29039 1.254,-0.2904 0.50159,1e-5 1.01199,0.15841 1.5312,0.4752 l 0.4752,-0.4752 c 0.23759,1e-5 0.34759,0.11881 0.33,0.3564 l -0.1848,3.2472 c -0.009,0.0968 -0.0132,0.1848 -0.0132,0.264 -1e-5,0.5632 0.1056,0.99 0.3168,1.2804 0.21999,0.2816 0.52359,0.4224 0.9108,0.4224 0.56319,0 0.99879,-0.2508 1.3068,-0.7524 0.31679,-0.5104 0.47519,-1.2056 0.4752,-2.0856 -10e-6,-0.87999 -0.16721,-1.66759 -0.5016,-2.3628 -0.32561,-0.70399 -0.84921,-1.27599 -1.5708,-1.716 -0.72161,-0.43999 -1.62801,-0.65999 -2.7192,-0.66 -1.09121,1e-5 -2.03721,0.25081 -2.838,0.7524 -1.5488,0.95921 -2.3232,2.49921 -2.3232,4.62 0,1.9096 0.6864,3.2824 2.0592,4.1184 0.72159,0.44 1.60159,0.66 2.64,0.66 1.40799,0 2.58279,-0.3828 3.5244,-1.1484 l 0.5016,0.66 c -1.05601,0.8624 -2.41121,1.2936 -4.0656,1.2936 -0.94161,0 -1.77761,-0.1496 -2.508,-0.4488 -0.7304,-0.2904 -1.3156,-0.6952 -1.7556,-1.2144 -0.9064,-1.0384 -1.3596,-2.332 -1.3596,-3.8808 0,-1.70719 0.506,-3.15479 1.518,-4.3428 0.5016,-0.58079 1.15719,-1.03839 1.9668,-1.3728 0.80959,-0.33439 1.70719,-0.50159 2.6928,-0.5016 0.98559,1e-5 1.84359,0.14961 2.574,0.4488 0.73039,0.29041 1.31999,0.69081 1.7688,1.2012 0.89759,1.04721 1.34639,2.34521 1.3464,3.894 m -6.006,-2.0196 c -1.14401,1e-5 -1.71601,0.86241 -1.716,2.5872 -1e-5,0.6072 0.1056,1.1088 0.3168,1.5048 0.21119,0.3872 0.57639,0.5808 1.0956,0.5808 0.51919,0 0.98999,-0.2772 1.4124,-0.8316 l 0.0396,-0.99 0.132,-2.508 c -0.39601,-0.22879 -0.82281,-0.34319 -1.2804,-0.3432"
         id="path3768"
         style="fill:#55768D;fill-opacity:1" />
      <path
         d="m 337.31638,474.37074 0,3.234 c 0.6776,-0.80959 1.48719,-1.21439 2.4288,-1.2144 0.49279,1e-5 0.92839,0.11881 1.3068,0.3564 0.37839,0.23761 0.66879,0.55001 0.8712,0.9372 0.41359,0.78321 0.62039,1.67201 0.6204,2.6664 -1e-5,0.9328 -0.24201,1.7996 -0.726,2.6004 -0.23761,0.4048 -0.58081,0.7348 -1.0296,0.99 -0.44881,0.2464 -0.92401,0.3696 -1.4256,0.3696 -0.49281,0 -0.9108,-0.0528 -1.254,-0.1584 -0.3344,-0.1056 -0.6468,-0.2816 -0.9372,-0.528 -0.5984,-0.5016 -0.8976,-1.3684 -0.8976,-2.6004 l 0,-6.27 -0.8184,-0.1056 0,-0.6864 1.4652,0 c 0.264,10e-6 0.396,0.13641 0.396,0.4092 m 0,6.6264 c 0,0.88 0.1804,1.518 0.5412,1.914 0.3608,0.396 0.8228,0.594 1.386,0.594 0.73039,0 1.28919,-0.2816 1.6764,-0.8448 0.38719,-0.572 0.58079,-1.342 0.5808,-2.31 -1e-5,-0.83599 -0.14081,-1.55319 -0.4224,-2.1516 -0.31681,-0.67759 -0.87121,-1.01639 -1.6632,-1.0164 -0.7832,10e-6 -1.4828,0.40481 -2.0988,1.2144 l 0,2.6004"
         id="path3770"
         style="fill:#55768D;fill-opacity:1" />
      <path
         d="m 350.41017,480.57474 -5.2008,0 c -10e-6,0.9768 0.24638,1.738 0.7392,2.2836 0.38719,0.4312 0.91519,0.6468 1.584,0.6468 0.67759,0 1.40359,-0.198 2.178,-0.594 l 0.33,0.7656 c -0.88881,0.4224 -1.68081,0.6336 -2.376,0.6336 -0.68641,0 -1.25401,-0.11 -1.7028,-0.33 -0.44001,-0.2288 -0.78761,-0.5324 -1.0428,-0.9108 -0.49281,-0.7656 -0.7392,-1.6324 -0.7392,-2.6004 0,-1.12639 0.23758,-2.07239 0.7128,-2.838 0.24639,-0.38719 0.58079,-0.69079 1.0032,-0.9108 0.43119,-0.21999 0.93278,-0.32999 1.5048,-0.33 0.94159,1e-5 1.67639,0.32121 2.2044,0.9636 0.53679,0.64241 0.80519,1.50041 0.8052,2.574 l 0,0.6468 m -1.0428,-0.7392 c -10e-6,-0.80079 -0.17601,-1.43879 -0.528,-1.914 -0.35201,-0.48399 -0.85801,-0.72599 -1.518,-0.726 -0.66001,1e-5 -1.15721,0.25081 -1.4916,0.7524 -0.33441,0.50161 -0.53241,1.13081 -0.594,1.8876 l 4.1316,0"
         id="path3772"
         style="fill:#55768D;fill-opacity:1" />
      <path
         d="m 354.01108,480.42954 0,2.9172 1.32,0.0924 0,0.6864 -3.2868,0 0,-0.6864 0.924,-0.0924 0,-5.9796 -0.924,-0.1056 0,-0.6864 1.3992,0 c 0.2728,1e-5 0.4092,0.13641 0.4092,0.4092 l 0,1.6368 c 0.2376,-0.60719 0.594,-1.12199 1.0692,-1.5444 0.48399,-0.43119 1.06479,-0.65999 1.7424,-0.6864 l 0,0.9108 c -0.73921,0.0264 -1.36841,0.32561 -1.8876,0.8976 -0.5104,0.57201 -0.7656,1.31561 -0.7656,2.2308"
         id="path3774"
         style="fill:#55768D;fill-opacity:1" />
      <path
         d="m 363.29026,482.81874 0,-4.0656 c 0,-0.55439 -0.1012,-0.95039 -0.3036,-1.188 -0.1936,-0.24639 -0.5324,-0.36959 -1.0164,-0.3696 -0.836,1e-5 -1.65,0.32561 -2.442,0.9768 l 0,5.1744 0.924,0.0924 0,0.6864 -2.8908,0 0,-0.6864 0.924,-0.0924 0,-5.9796 -0.924,-0.1056 0,-0.6864 1.3992,0 c 0.2728,1e-5 0.4092,0.13201 0.4092,0.396 l 0,0.5148 c 0.924,-0.73039 1.8568,-1.09559 2.7984,-1.0956 0.7568,1e-5 1.3068,0.19361 1.65,0.5808 0.3432,0.38721 0.5148,0.98121 0.5148,1.782 l 0,3.9468 c 0,0.484 0.1892,0.726 0.5676,0.726 0.1584,0 0.3432,-0.0264 0.5544,-0.0792 l 0.1188,0.792 c -0.3432,0.1144 -0.682,0.1716 -1.0164,0.1716 -0.8448,0 -1.2672,-0.4972 -1.2672,-1.4916"
         id="path3776"
         style="fill:#55768D;fill-opacity:1" />
      <path
         d="m 371.23522,473.96154 1.4388,0 c 0.28159,10e-6 0.41359,0.13641 0.396,0.4092 l 0,8.3292 c -10e-6,0.484 0.18919,0.726 0.5676,0.726 0.15839,0 0.34319,-0.0264 0.5544,-0.0792 l 0.1188,0.792 c -0.34321,0.1144 -0.68201,0.1716 -1.0164,0.1716 -0.75681,0 -1.1748,-0.396 -1.254,-1.188 -0.5808,0.792 -1.3068,1.188 -2.178,1.188 -0.5016,0 -0.946,-0.1188 -1.3332,-0.3564 -0.3784,-0.2376 -0.6688,-0.55 -0.8712,-0.9372 -0.4136,-0.7832 -0.6204,-1.672 -0.6204,-2.6664 0,-1.02079 0.1892,-1.90519 0.5676,-2.6532 0.2112,-0.40479 0.5236,-0.72159 0.9372,-0.9504 0.4136,-0.23759 0.9372,-0.35639 1.5708,-0.3564 0.6424,1e-5 1.2804,0.16281 1.914,0.4884 l 0,-2.1252 -0.792,-0.1056 0,-0.6864 m -1.0164,3.234 c -1.4256,1e-5 -2.1384,1.05161 -2.1384,3.1548 0,0.8448 0.132,1.562 0.396,2.1516 0.1408,0.3168 0.3476,0.5676 0.6204,0.7524 0.2816,0.176 0.6116,0.264 0.99,0.264 0.7656,0 1.4124,-0.4004 1.9404,-1.2012 l 0,-4.6728 c -0.5456,-0.29919 -1.1484,-0.44879 -1.8084,-0.4488"
         id="path3778"
         style="fill:#55768D;fill-opacity:1" />
      <path
         d="m 379.34085,483.50514 c 1.4168,0 2.12519,-1.0516 2.1252,-3.1548 -10e-6,-0.84479 -0.13201,-1.56199 -0.396,-2.1516 -0.1408,-0.31679 -0.352,-0.56319 -0.6336,-0.7392 -0.2728,-0.18479 -0.5984,-0.27719 -0.9768,-0.2772 -0.6864,10e-6 -1.3332,0.40481 -1.9404,1.2144 l 0,4.6596 c 0.5456,0.2992 1.1528,0.4488 1.8216,0.4488 m -3.7884,-6.93 1.3992,0 c 0.2728,1e-5 0.4092,0.13201 0.4092,0.396 l 0,0.8316 c 0.7128,-0.94159 1.5356,-1.41239 2.4684,-1.4124 0.4664,1e-5 0.88,0.11881 1.2408,0.3564 0.36079,0.23761 0.64239,0.55001 0.8448,0.9372 0.39599,0.77441 0.59399,1.66321 0.594,2.6664 -10e-6,1.0208 -0.18921,1.9052 -0.5676,2.6532 -0.21121,0.4048 -0.52361,0.726 -0.9372,0.9636 -0.4136,0.2288 -0.9372,0.3432 -1.5708,0.3432 -0.6248,0 -1.2628,-0.1584 -1.914,-0.4752 l 0,3.2868 -1.0428,0.0792 0,-9.834 -0.924,-0.1056 0,-0.6864"
         id="path3780"
         style="fill:#55768D;fill-opacity:1" />
      <path
         d="m 386.28921,480.42954 0,2.9172 1.32,0.0924 0,0.6864 -3.2868,0 0,-0.6864 0.924,-0.0924 0,-5.9796 -0.924,-0.1056 0,-0.6864 1.3992,0 c 0.2728,1e-5 0.4092,0.13641 0.4092,0.4092 l 0,1.6368 c 0.2376,-0.60719 0.594,-1.12199 1.0692,-1.5444 0.48399,-0.43119 1.06479,-0.65999 1.7424,-0.6864 l 0,0.9108 c -0.73921,0.0264 -1.36841,0.32561 -1.8876,0.8976 -0.5104,0.57201 -0.7656,1.31561 -0.7656,2.2308"
         id="path3782"
         style="fill:#55768D;fill-opacity:1" />
      <path
         d="m 396.41319,476.98434 0,5.7156 c 0,0.484 0.1936,0.726 0.5808,0.726 0.22,0 0.4004,-0.0264 0.5412,-0.0792 l 0.132,0.792 c -0.3608,0.1144 -0.6996,0.1716 -1.0164,0.1716 -0.7128,0 -1.1264,-0.3388 -1.2408,-1.0164 -0.9152,0.6776 -1.7908,1.0164 -2.6268,1.0164 -0.8272,0 -1.4124,-0.1892 -1.7556,-0.5676 -0.3432,-0.3872 -0.5148,-0.9856 -0.5148,-1.7952 l 0,-4.5804 -0.924,-0.1056 0,-0.6864 1.518,0 c 0.2992,1e-5 0.4488,0.13641 0.4488,0.4092 l 0,4.9632 c 0,0.5544 0.0968,0.9548 0.2904,1.2012 0.2024,0.2464 0.5456,0.3696 1.0296,0.3696 0.836,0 1.672,-0.3432 2.508,-1.0296 l 0,-5.1216 -0.792,-0.1056 0,-0.6864 1.4256,0 c 0.264,1e-5 0.396,0.13641 0.396,0.4092"
         id="path3784"
         style="fill:#55768D;fill-opacity:1" />
      <path
         d="m 405.27267,480.57474 -5.2008,0 c -10e-6,0.9768 0.24639,1.738 0.7392,2.2836 0.38719,0.4312 0.91519,0.6468 1.584,0.6468 0.67759,0 1.40358,-0.198 2.178,-0.594 l 0.33,0.7656 c -0.88881,0.4224 -1.68081,0.6336 -2.376,0.6336 -0.68641,0 -1.25401,-0.11 -1.7028,-0.33 -0.44001,-0.2288 -0.78761,-0.5324 -1.0428,-0.9108 -0.49281,-0.7656 -0.7392,-1.6324 -0.7392,-2.6004 0,-1.12639 0.23758,-2.07239 0.7128,-2.838 0.24639,-0.38719 0.58079,-0.69079 1.0032,-0.9108 0.43119,-0.21999 0.93278,-0.32999 1.5048,-0.33 0.94159,1e-5 1.67639,0.32121 2.2044,0.9636 0.53679,0.64241 0.80519,1.50041 0.8052,2.574 l 0,0.6468 m -1.0428,-0.7392 c -1e-5,-0.80079 -0.17601,-1.43879 -0.528,-1.914 -0.35201,-0.48399 -0.85801,-0.72599 -1.518,-0.726 -0.66001,1e-5 -1.15721,0.25081 -1.4916,0.7524 -0.33441,0.50161 -0.53241,1.13081 -0.594,1.8876 l 4.1316,0"
         id="path3786"
         style="fill:#55768D;fill-opacity:1" />
      <path
         d="m 412.63558,482.81874 0,-4.0656 c -1e-5,-0.55439 -0.1012,-0.95039 -0.3036,-1.188 -0.19361,-0.24639 -0.53241,-0.36959 -1.0164,-0.3696 -0.83601,1e-5 -1.65,0.32561 -2.442,0.9768 l 0,5.1744 0.924,0.0924 0,0.6864 -2.8908,0 0,-0.6864 0.924,-0.0924 0,-5.9796 -0.924,-0.1056 0,-0.6864 1.3992,0 c 0.2728,1e-5 0.4092,0.13201 0.4092,0.396 l 0,0.5148 c 0.924,-0.73039 1.85679,-1.09559 2.7984,-1.0956 0.75679,1e-5 1.30679,0.19361 1.65,0.5808 0.34319,0.38721 0.51479,0.98121 0.5148,1.782 l 0,3.9468 c -1e-5,0.484 0.18919,0.726 0.5676,0.726 0.15839,0 0.34319,-0.0264 0.5544,-0.0792 l 0.1188,0.792 c -0.34321,0.1144 -0.68201,0.1716 -1.0164,0.1716 -0.84481,0 -1.26721,-0.4972 -1.2672,-1.4916"
         id="path3788"
         style="fill:#55768D;fill-opacity:1" />
      <path
         d="m 420.95014,477.68394 c -0.68641,-0.32559 -1.31561,-0.48839 -1.8876,-0.4884 -0.57201,1e-5 -0.99881,0.1012 -1.2804,0.3036 -0.27281,0.20241 -0.40921,0.48401 -0.4092,0.8448 -1e-5,0.35201 0.14079,0.64681 0.4224,0.8844 0.28159,0.22881 0.62479,0.42241 1.0296,0.5808 0.40479,0.1584 0.80519,0.3256 1.2012,0.5016 0.40479,0.176 0.74799,0.4268 1.0296,0.7524 0.28159,0.3256 0.42239,0.726 0.4224,1.2012 -10e-6,0.6424 -0.23761,1.144 -0.7128,1.5048 -0.46641,0.3608 -1.08681,0.5412 -1.8612,0.5412 -0.77441,0 -1.40361,-0.1848 -1.8876,-0.5544 -0.47521,-0.3784 -0.792,-0.9108 -0.9504,-1.5972 l 0.9108,-0.2112 c 0.30799,1.056 0.92399,1.584 1.848,1.584 0.51919,0 0.91959,-0.11 1.2012,-0.33 0.28159,-0.22 0.42239,-0.5104 0.4224,-0.8712 -10e-6,-0.3696 -0.14081,-0.6688 -0.4224,-0.8976 -0.28161,-0.2288 -0.62481,-0.4224 -1.0296,-0.5808 -0.40481,-0.1584 -0.80961,-0.3256 -1.2144,-0.5016 -0.40481,-0.176 -0.74801,-0.4312 -1.0296,-0.7656 -0.28161,-0.33439 -0.4224,-0.73919 -0.4224,-1.2144 0,-0.62479 0.23759,-1.10879 0.7128,-1.452 0.47519,-0.35199 1.09559,-0.52799 1.8612,-0.528 0.77439,1e-5 1.56639,0.17601 2.376,0.528 l -0.33,0.7656"
         id="path3790"
         style="fill:#55768D;fill-opacity:1" />
      <path
         d="m 422.63788,477.30114 0,-0.726 1.1484,0 0,-1.716 1.0428,-0.2376 0,1.9536 1.4388,0 0,0.726 -1.4388,0 0,5.3988 c 0,0.4752 0.1936,0.7128 0.5808,0.7128 0.2552,0 0.50159,-0.0484 0.7392,-0.1452 l 0.1188,0.8052 c -0.41361,0.1584 -0.8316,0.2376 -1.254,0.2376 -0.4136,0 -0.7216,-0.1188 -0.924,-0.3564 -0.2024,-0.2464 -0.3036,-0.6336 -0.3036,-1.1616 l 0,-5.4912 -1.1484,0"
         id="path3792"
         style="fill:#55768D;fill-opacity:1" />
      <path
         d="m 433.83829,480.57474 -5.2008,0 c -1e-5,0.9768 0.24639,1.738 0.7392,2.2836 0.38719,0.4312 0.91519,0.6468 1.584,0.6468 0.67759,0 1.40359,-0.198 2.178,-0.594 l 0.33,0.7656 c -0.88881,0.4224 -1.68081,0.6336 -2.376,0.6336 -0.68641,0 -1.25401,-0.11 -1.7028,-0.33 -0.44001,-0.2288 -0.78761,-0.5324 -1.0428,-0.9108 -0.49281,-0.7656 -0.7392,-1.6324 -0.7392,-2.6004 0,-1.12639 0.23759,-2.07239 0.7128,-2.838 0.24639,-0.38719 0.58079,-0.69079 1.0032,-0.9108 0.43119,-0.21999 0.93279,-0.32999 1.5048,-0.33 0.94159,1e-5 1.67639,0.32121 2.2044,0.9636 0.53679,0.64241 0.80519,1.50041 0.8052,2.574 l 0,0.6468 m -1.0428,-0.7392 c -10e-6,-0.80079 -0.17601,-1.43879 -0.528,-1.914 -0.35201,-0.48399 -0.85801,-0.72599 -1.518,-0.726 -0.66001,1e-5 -1.15721,0.25081 -1.4916,0.7524 -0.33441,0.50161 -0.53241,1.13081 -0.594,1.8876 l 4.1316,0"
         id="path3794"
         style="fill:#55768D;fill-opacity:1" />
      <path
         d="m 437.43921,480.42954 0,2.9172 1.32,0.0924 0,0.6864 -3.2868,0 0,-0.6864 0.924,-0.0924 0,-5.9796 -0.924,-0.1056 0,-0.6864 1.3992,0 c 0.2728,1e-5 0.4092,0.13641 0.4092,0.4092 l 0,1.6368 c 0.2376,-0.60719 0.594,-1.12199 1.0692,-1.5444 0.48399,-0.43119 1.06479,-0.65999 1.7424,-0.6864 l 0,0.9108 c -0.73921,0.0264 -1.36841,0.32561 -1.8876,0.8976 -0.5104,0.57201 -0.7656,1.31561 -0.7656,2.2308"
         id="path3796"
         style="fill:#55768D;fill-opacity:1" />
      <path
         d="m 441.83439,484.23114 c -0.1936,0 -0.3608,-0.0704 -0.5016,-0.2112 -0.1408,-0.1408 -0.2112,-0.308 -0.2112,-0.5016 0,-0.2024 0.0704,-0.374 0.2112,-0.5148 0.1496,-0.1496 0.3212,-0.2244 0.5148,-0.2244 0.1936,0 0.3608,0.0748 0.5016,0.2244 0.1496,0.1408 0.2244,0.308 0.2244,0.5016 0,0.1936 -0.0748,0.3652 -0.2244,0.5148 -0.1408,0.1408 -0.3124,0.2112 -0.5148,0.2112"
         id="path3798"
         style="fill:#55768D;fill-opacity:1" />
      <path
         d="m 444.39148,480.28434 c 0,-1.24079 0.2772,-2.19999 0.8316,-2.8776 0.5632,-0.67759 1.3552,-1.01639 2.376,-1.0164 1.02959,1e-5 1.84799,0.36521 2.4552,1.0956 0.60719,0.72161 0.91079,1.70281 0.9108,2.9436 -10e-6,1.232 -0.28161,2.1868 -0.8448,2.8644 -0.56321,0.6776 -1.35961,1.0164 -2.3892,1.0164 -1.0208,0 -1.8348,-0.3608 -2.442,-1.0824 -0.5984,-0.7304 -0.8976,-1.7116 -0.8976,-2.9436 m 5.5308,0.132 c -10e-6,-0.99439 -0.20681,-1.77759 -0.6204,-2.3496 -0.41361,-0.58079 -0.97241,-0.87119 -1.6764,-0.8712 -0.704,1e-5 -1.2496,0.26841 -1.6368,0.8052 -0.3784,0.53681 -0.5676,1.29801 -0.5676,2.2836 0,0.9856 0.2068,1.7688 0.6204,2.3496 0.4224,0.5808 0.9812,0.8712 1.6764,0.8712 0.69519,0 1.23639,-0.2684 1.6236,-0.8052 0.38719,-0.5368 0.58079,-1.298 0.5808,-2.2836"
         id="path3800"
         style="fill:#55768D;fill-opacity:1" />
      <path
         d="m 454.60951,480.42954 0,2.9172 1.32,0.0924 0,0.6864 -3.2868,0 0,-0.6864 0.924,-0.0924 0,-5.9796 -0.924,-0.1056 0,-0.6864 1.3992,0 c 0.2728,1e-5 0.4092,0.13641 0.4092,0.4092 l 0,1.6368 c 0.2376,-0.60719 0.594,-1.12199 1.0692,-1.5444 0.484,-0.43119 1.0648,-0.65999 1.7424,-0.6864 l 0,0.9108 c -0.7392,0.0264 -1.3684,0.32561 -1.8876,0.8976 -0.5104,0.57201 -0.7656,1.31561 -0.7656,2.2308"
         id="path3802"
         style="fill:#55768D;fill-opacity:1" />
      <path
         d="m 461.22231,476.39034 c 0.38719,1e-5 0.75239,0.0616 1.0956,0.1848 l 2.0856,0 0,0.726 -1.0296,0 c 0.40479,0.49281 0.60719,1.13521 0.6072,1.9272 -10e-6,0.792 -0.23761,1.4212 -0.7128,1.8876 -0.46641,0.4576 -1.14841,0.6864 -2.046,0.6864 -0.5192,0 -0.9812,-0.1012 -1.386,-0.3036 l -0.6996,0.7128 c -0.2024,0.2024 -0.3036,0.4092 -0.3036,0.6204 0,0.2904 0.1848,0.4356 0.5544,0.4356 l 2.8776,0 c 0.64239,0 1.17479,0.1672 1.5972,0.5016 0.42239,0.3256 0.63359,0.7744 0.6336,1.3464 -10e-6,0.6952 -0.28601,1.232 -0.858,1.6104 -0.56321,0.3872 -1.36401,0.5808 -2.4024,0.5808 -1.0296,0 -1.848,-0.1584 -2.4552,-0.4752 -0.5984,-0.308 -0.8976,-0.8008 -0.8976,-1.4784 0,-0.2464 0.0616,-0.506 0.1848,-0.7788 0.1232,-0.2728 0.286,-0.4884 0.4884,-0.6468 -0.4488,-0.1672 -0.6732,-0.4664 -0.6732,-0.8976 0,-0.4312 0.2376,-0.88 0.7128,-1.3464 l 0.6336,-0.6072 c -0.5104,-0.4928 -0.7656,-1.1616 -0.7656,-2.0064 0,-0.85359 0.2332,-1.51359 0.6996,-1.98 0.4752,-0.46639 1.1616,-0.69959 2.0592,-0.6996 m 1.782,2.7456 c -10e-6,-0.61599 -0.16281,-1.09999 -0.4884,-1.452 -0.31681,-0.36079 -0.75681,-0.54119 -1.32,-0.5412 -0.5544,10e-6 -0.9856,0.16721 -1.2936,0.5016 -0.308,0.33441 -0.462,0.81401 -0.462,1.4388 0,0.616 0.1628,1.1044 0.4884,1.4652 0.3344,0.3608 0.7788,0.5412 1.3332,0.5412 0.55439,0 0.98119,-0.1716 1.2804,-0.5148 0.30799,-0.3432 0.46199,-0.8228 0.462,-1.4388 m -0.8052,4.9236 -2.8644,0 c -0.3168,0.3784 -0.4752,0.7744 -0.4752,1.188 0,0.4224 0.2156,0.7436 0.6468,0.9636 0.4312,0.2288 0.99,0.3432 1.6764,0.3432 1.56639,0 2.34959,-0.484 2.3496,-1.452 -10e-6,-0.3432 -0.11881,-0.6028 -0.3564,-0.7788 -0.23761,-0.176 -0.56321,-0.264 -0.9768,-0.264"
         id="path3804"
         style="fill:#55768D;fill-opacity:1" />
      <path
         d="m 470.54377,479.32074 -4.3956,-1.8216 0,-0.9504 5.2008,2.2308 0,1.0824 -5.2008,2.2308 0,-0.9504 4.3956,-1.8216"
         id="path3806"
         style="fill:#55768D;fill-opacity:1" />
    </g>
  </g>
</svg>
