<?xml version="1.0" encoding="UTF-8" standalone="no"?>
<!-- Created with Inkscape (http://www.inkscape.org/) -->

<svg
   xmlns:dc="http://purl.org/dc/elements/1.1/"
   xmlns:cc="http://creativecommons.org/ns#"
   xmlns:rdf="http://www.w3.org/1999/02/22-rdf-syntax-ns#"
   xmlns:svg="http://www.w3.org/2000/svg"
   xmlns="http://www.w3.org/2000/svg"
   xmlns:sodipodi="http://sodipodi.sourceforge.net/DTD/sodipodi-0.dtd"
   xmlns:inkscape="http://www.inkscape.org/namespaces/inkscape"
   width="242"
   height="242"
   id="svg2"
   version="1.1"
   inkscape:version="0.48.4 r9939"
   sodipodi:docname="maginum_pi_notification.svg"
   inkscape:export-filename="/home/jesus/Documents/tuGraz/Master/1. Semester/ACN/UE/git/maginum_pi.png"
   inkscape:export-xdpi="90"
   inkscape:export-ydpi="90">
  <defs
     id="defs4">
    <clipPath
       clipPathUnits="userSpaceOnUse"
       id="clipPath3912">
      <path
         d="m 620,432.36218 a 120,120 0 1 1 -240,0 120,120 0 1 1 240,0 z"
         sodipodi:ry="120"
         sodipodi:rx="120"
         sodipodi:cy="432.36218"
         sodipodi:cx="500"
         id="path3914"
         style="fill:none;stroke:#ffffff;stroke-width:2;stroke-linecap:round;stroke-linejoin:round;stroke-miterlimit:4;stroke-opacity:1;stroke-dasharray:none;stroke-dashoffset:0"
         sodipodi:type="arc" />
    </clipPath>
    <filter
       id="filter3920"
       inkscape:label="Colorize"
       inkscape:menu="Color"
       inkscape:menu-tooltip="Blend image or object with a flood color and set lightness and contrast"
       x="0"
       y="0"
       width="1"
       height="1"
       color-interpolation-filters="sRGB">
      <feColorMatrix
         id="feColorMatrix3922"
         values="1"
         in="SourceGraphic"
         type="saturate"
         result="result2" />
      <feFlood
         id="feFlood3924"
         flood-color="rgb(254,102,0)"
         flood-opacity="1"
         result="result1" />
      <feBlend
         id="feBlend3926"
         in2="result2"
         mode="multiply"
         in="result1"
         result="result3" />
      <feComposite
         id="feComposite3928"
         in2="SourceGraphic"
         operator="in"
         result="result4" />
    </filter>
  </defs>
  <sodipodi:namedview
     id="base"
     pagecolor="#ffffff"
     bordercolor="#666666"
     borderopacity="1.0"
     inkscape:pageopacity="0"
     inkscape:pageshadow="2"
     inkscape:zoom="1.4142136"
     inkscape:cx="62.804713"
     inkscape:cy="97.803592"
     inkscape:document-units="px"
     inkscape:current-layer="layer1"
     showgrid="true"
     inkscape:window-width="1366"
     inkscape:window-height="719"
     inkscape:window-x="0"
     inkscape:window-y="27"
     inkscape:window-maximized="1"
     fit-margin-top="0"
     fit-margin-left="0"
     fit-margin-right="0"
     fit-margin-bottom="0">
    <inkscape:grid
       type="xygrid"
       id="grid3004"
       empspacing="5"
       visible="true"
       enabled="true"
       snapvisiblegridlinesonly="true"
       originx="-226.97205px"
       originy="-404.9548px" />
  </sodipodi:namedview>
  <metadata
     id="metadata7">
    <rdf:RDF>
      <cc:Work
         rdf:about="">
        <dc:format>image/svg+xml</dc:format>
        <dc:type
           rdf:resource="http://purl.org/dc/dcmitype/StillImage" />
        <dc:title></dc:title>
      </cc:Work>
    </rdf:RDF>
  </metadata>
  <g
     inkscape:label="Layer 1"
     inkscape:groupmode="layer"
     id="layer1"
     transform="translate(-226.97205,-405.40738)">
    <text
       xml:space="preserve"
       style="font-size:13px;font-style:normal;font-variant:normal;font-weight:normal;font-stretch:normal;line-height:125%;letter-spacing:0px;word-spacing:0px;fill:#000000;fill-opacity:1;stroke:none;font-family:Fauna One;-inkscape-font-specification:Fauna One"
       x="305.06607"
       y="328.08282"
       id="text2996"
       sodipodi:linespacing="125%"><tspan
         sodipodi:role="line"
         id="tspan2998"
         x="305.06607"
         y="328.08282" /></text>
    <g
       transform="matrix(1.1926857,0,0,1.1926857,-229.12098,19.592458)"
       id="g3045"
       style="font-size:249.40814209px;font-style:oblique;font-variant:normal;font-weight:bold;font-stretch:normal;line-height:125%;letter-spacing:0px;word-spacing:0px;fill:#000000;fill-opacity:1;stroke:#000000;stroke-width:20;stroke-linecap:round;stroke-linejoin:round;stroke-miterlimit:4;stroke-opacity:1;stroke-dasharray:none;font-family:DejaVu Sans;-inkscape-font-specification:DejaVu Sans Bold Oblique">
      <path
         style="fill:#000000;fill-opacity:1;stroke:#000000;stroke-width:20;stroke-linecap:round;stroke-linejoin:round;stroke-miterlimit:4;stroke-opacity:1;stroke-dasharray:none"
         inkscape:connector-curvature="0"
         id="path3047"
         d="m 402.72849,355.9671 172.077,0 -6.08907,31.17602 -23.86913,0 -11.93457,61.13423 c -1.13678,6.00791 -1.70509,10.51382 -1.70494,13.51772 -1.5e-4,2.92278 0.32459,4.91187 0.97425,5.96729 1.46122,2.59802 4.46516,3.89702 9.01182,3.897 4.62752,2e-5 8.28095,-0.16236 10.96031,-0.48713 l -4.5059,22.89489 c -5.35855,2.02969 -16.6842,3.04453 -33.97699,3.04453 -5.4397,0 -10.6357,-0.77128 -15.58801,-2.31384 -8.93074,-2.84156 -13.39605,-8.68706 -13.39595,-17.53651 -1e-4,-3.32867 0.52762,-7.75339 1.58316,-13.27416 l 14.9791,-76.84402 -37.1433,0 -20.45926,105.21906 -43.59771,0 20.45926,-105.21906 -23.86914,0 6.08907,-31.17602" />
    </g>
    <g
       style="font-size:249.40814209px;font-style:oblique;font-variant:normal;font-weight:bold;font-stretch:normal;line-height:125%;letter-spacing:0px;word-spacing:0px;fill:#ffffff;fill-opacity:1;stroke:none;font-family:DejaVu Sans;-inkscape-font-specification:DejaVu Sans Bold Oblique"
       id="text3000"
       transform="matrix(1.1926857,0,0,1.1926857,-229.12098,19.592458)">
      <path
         d="m 402.72849,355.9671 172.077,0 -6.08907,31.17602 -23.86913,0 -11.93457,61.13423 c -1.13678,6.00791 -1.70509,10.51382 -1.70494,13.51772 -1.5e-4,2.92278 0.32459,4.91187 0.97425,5.96729 1.46122,2.59802 4.46516,3.89702 9.01182,3.897 4.62752,2e-5 8.28095,-0.16236 10.96031,-0.48713 l -4.5059,22.89489 c -5.35855,2.02969 -16.6842,3.04453 -33.97699,3.04453 -5.4397,0 -10.6357,-0.77128 -15.58801,-2.31384 -8.93074,-2.84156 -13.39605,-8.68706 -13.39595,-17.53651 -1e-4,-3.32867 0.52762,-7.75339 1.58316,-13.27416 l 14.9791,-76.84402 -37.1433,0 -20.45926,105.21906 -43.59771,0 20.45926,-105.21906 -23.86914,0 6.08907,-31.17602"
         id="path3816"
         inkscape:connector-curvature="0"
         style="fill:#ffffff;fill-opacity:1;stroke:none" />
    </g>
    <g
       id="g3887"
       style="stroke:#000000;stroke-width:10.03355153;stroke-linejoin:round;stroke-miterlimit:4;stroke-opacity:1;stroke-dasharray:none;fill:#000000;fill-opacity:1"
       transform="matrix(1.4949841,0,0,1.4949841,-171.76902,-258.70367)">
      <path
         style="fill:#000000;fill-opacity:1;stroke:#000000;stroke-width:10.03355153;stroke-linejoin:round;stroke-miterlimit:4;stroke-opacity:1;stroke-dasharray:none"
         d="m 344.99893,544.3633 c 0,0 -2.18424,8 -7,8 l -38,0 c 1,-7 11.10608,-16.42121 29,-20 5,-1 14,-1 16,-1 0,0 0.001,8.66609 0,13 z"
         id="path3889"
         inkscape:connector-curvature="0"
         sodipodi:nodetypes="cscscc" />
      <path
         sodipodi:nodetypes="cscscc"
         inkscape:connector-curvature="0"
         id="path3891"
         d="m 344.9917,544.36218 c 0,0 2.18424,8 7,8 l 38,0 c -1,-7 -11.10608,-16.42121 -29,-20 -5,-1 -14,-1 -16,-1 0,0 -10e-4,8.66609 0,13 z"
         style="fill:#000000;fill-opacity:1;stroke:#000000;stroke-width:10.03355153;stroke-linejoin:round;stroke-miterlimit:4;stroke-opacity:1;stroke-dasharray:none" />
    </g>
    <g
       id="g3883"
       transform="matrix(1.4949841,0,0,1.4949841,-171.76902,-258.70367)"
       style="fill:#cccccc;fill-opacity:1;stroke:#cccccc;stroke-opacity:1">
      <path
         sodipodi:nodetypes="cscscc"
         inkscape:connector-curvature="0"
         id="path3811"
         d="m 344.99893,544.3633 c 0,0 -2.18424,8 -7,8 l -38,0 c 1,-7 11.10608,-16.42121 29,-20 5,-1 14,-1 16,-1 0,0 0.001,8.66609 0,13 z"
         style="fill:#cccccc;fill-opacity:1;stroke:#cccccc;stroke-opacity:1" />
      <path
         style="fill:#cccccc;fill-opacity:1;stroke:#cccccc;stroke-opacity:1"
         d="m 344.9917,544.36218 c 0,0 2.18424,8 7,8 l 38,0 c -1,-7 -11.10608,-16.42121 -29,-20 -5,-1 -14,-1 -16,-1 0,0 -10e-4,8.66609 0,13 z"
         id="path3813"
         inkscape:connector-curvature="0"
         sodipodi:nodetypes="cscscc" />
    </g>
    <g
       id="g3868"
       transform="matrix(1.4949841,0,0,1.4949841,-171.76902,-258.70367)"
       style="fill:#000000;fill-opacity:1;stroke:#000000;stroke-opacity:1;stroke-width:10.03355153;stroke-miterlimit:4;stroke-dasharray:none">
      <path
         style="fill:#000000;stroke:#000000;stroke-width:10.03355153;stroke-linecap:round;stroke-linejoin:miter;stroke-miterlimit:4;stroke-opacity:1;stroke-dasharray:none;fill-opacity:1"
         d="m 325.49535,488.52358 40,0"
         id="path3842"
         inkscape:connector-curvature="0"
         sodipodi:nodetypes="cc" />
      <path
         style="fill:#000000;stroke:#000000;stroke-width:10.03355153;stroke-linecap:round;stroke-linejoin:miter;stroke-miterlimit:4;stroke-opacity:1;stroke-dasharray:none;fill-opacity:1"
         d="m 338.49535,496.52358 13,0"
         id="path3844"
         inkscape:connector-curvature="0"
         sodipodi:nodetypes="cc" />
      <path
         sodipodi:nodetypes="cc"
         inkscape:connector-curvature="0"
         id="path3846"
         d="m 295.53596,496.3015 4,0"
         style="fill:#000000;stroke:#000000;stroke-width:10.03355153;stroke-linecap:round;stroke-linejoin:miter;stroke-miterlimit:4;stroke-opacity:1;stroke-dasharray:none;fill-opacity:1" />
      <path
         style="fill:#000000;fill-opacity:1;stroke:#000000;stroke-width:10.03355153;stroke-linecap:butt;stroke-linejoin:miter;stroke-miterlimit:4;stroke-opacity:1;stroke-dasharray:none"
         d="m 320.49535,486.52358 c -12,-2 -24,6.00001 -24,12 0,20 10.51471,25 19,25 10,0 24,-12.90956 24,-25 0,-6 -8.14967,-10.19161 -19,-12 z"
         id="path3848"
         inkscape:connector-curvature="0"
         sodipodi:nodetypes="sssss" />
      <path
         style="fill:#000000;stroke:#000000;stroke-width:10.03355153;stroke-linecap:round;stroke-linejoin:miter;stroke-miterlimit:4;stroke-opacity:1;stroke-dasharray:none;fill-opacity:1"
         d="m 394.45645,496.3015 -4,0"
         id="path3850"
         inkscape:connector-curvature="0"
         sodipodi:nodetypes="cc" />
      <path
         sodipodi:nodetypes="sssss"
         inkscape:connector-curvature="0"
         id="path3852"
         d="m 369.49706,486.52358 c 12,-2 24,6.00001 24,12 0,20 -10.51471,25 -19,25 -10,0 -24,-12.90956 -24,-25 0,-6 8.14967,-10.19161 19,-12 z"
         style="fill:#000000;fill-opacity:1;stroke:#000000;stroke-width:10.03355153;stroke-linecap:butt;stroke-linejoin:miter;stroke-miterlimit:4;stroke-opacity:1;stroke-dasharray:none" />
      <g
         transform="translate(0,-40)"
         id="g3828"
         style="fill:#000000;fill-opacity:1;stroke:#000000;stroke-opacity:1;stroke-width:10.03355153;stroke-miterlimit:4;stroke-dasharray:none">
        <path
           style="fill:#000000;stroke:#000000;stroke-width:10.03355153;stroke-linecap:round;stroke-linejoin:miter;stroke-miterlimit:4;stroke-opacity:1;stroke-dasharray:none;fill-opacity:1"
           d="m 325.49535,528.52358 40,0"
           id="path3809"
           inkscape:connector-curvature="0"
           sodipodi:nodetypes="cc" />
        <path
           style="fill:#000000;stroke:#000000;stroke-width:10.03355153;stroke-linecap:round;stroke-linejoin:miter;stroke-miterlimit:4;stroke-opacity:1;stroke-dasharray:none;fill-opacity:1"
           d="m 338.49535,536.52358 13,0"
           id="path3807"
           inkscape:connector-curvature="0"
           sodipodi:nodetypes="cc" />
        <path
           sodipodi:nodetypes="cc"
           inkscape:connector-curvature="0"
           id="path3818"
           d="m 295.53596,536.3015 4,0"
           style="fill:#000000;stroke:#000000;stroke-width:10.03355153;stroke-linecap:round;stroke-linejoin:miter;stroke-miterlimit:4;stroke-opacity:1;stroke-dasharray:none;fill-opacity:1" />
        <path
           style="fill:#000000;fill-opacity:1;stroke:#000000;stroke-width:10.03355153;stroke-linecap:butt;stroke-linejoin:miter;stroke-miterlimit:4;stroke-opacity:1;stroke-dasharray:none"
           d="m 320.49535,526.52358 c -12,-2 -24,6.00001 -24,12 0,20 10.51471,25 19,25 10,0 24,-12.90956 24,-25 0,-6 -8.14967,-10.19161 -19,-12 z"
           id="path3006"
           inkscape:connector-curvature="0"
           sodipodi:nodetypes="sssss" />
        <path
           style="fill:#000000;stroke:#000000;stroke-width:10.03355153;stroke-linecap:round;stroke-linejoin:miter;stroke-miterlimit:4;stroke-opacity:1;stroke-dasharray:none;fill-opacity:1"
           d="m 394.45645,536.3015 -4,0"
           id="path3822"
           inkscape:connector-curvature="0"
           sodipodi:nodetypes="cc" />
        <path
           sodipodi:nodetypes="sssss"
           inkscape:connector-curvature="0"
           id="path3824"
           d="m 369.49706,526.52358 c 12,-2 24,6.00001 24,12 0,20 -10.51471,25 -19,25 -10,0 -24,-12.90956 -24,-25 0,-6 8.14967,-10.19161 19,-12 z"
           style="fill:#000000;fill-opacity:1;stroke:#000000;stroke-width:10.03355153;stroke-linecap:butt;stroke-linejoin:miter;stroke-miterlimit:4;stroke-opacity:1;stroke-dasharray:none" />
      </g>
    </g>
    <g
       transform="matrix(1.4949841,0,0,1.4949841,-171.76902,-258.70367)"
       id="g3843"
       style="fill:#cccccc;fill-opacity:1;stroke:#cccccc;stroke-opacity:1">
      <path
         sodipodi:nodetypes="cc"
         inkscape:connector-curvature="0"
         id="path3845"
         d="m 325.49535,488.52358 40,0"
         style="fill:#cccccc;stroke:#cccccc;stroke-width:4;stroke-linecap:round;stroke-linejoin:miter;stroke-miterlimit:4;stroke-opacity:1;stroke-dasharray:none;fill-opacity:1" />
      <path
         sodipodi:nodetypes="cc"
         inkscape:connector-curvature="0"
         id="path3847"
         d="m 338.49535,496.52358 13,0"
         style="fill:#cccccc;stroke:#cccccc;stroke-width:3;stroke-linecap:round;stroke-linejoin:miter;stroke-miterlimit:4;stroke-opacity:1;stroke-dasharray:none;fill-opacity:1" />
      <path
         style="fill:#cccccc;stroke:#cccccc;stroke-width:4;stroke-linecap:round;stroke-linejoin:miter;stroke-miterlimit:4;stroke-opacity:1;stroke-dasharray:none;fill-opacity:1"
         d="m 295.53596,496.3015 4,0"
         id="path3849"
         inkscape:connector-curvature="0"
         sodipodi:nodetypes="cc" />
      <path
         sodipodi:nodetypes="sssss"
         inkscape:connector-curvature="0"
         id="path3851"
         d="m 320.49535,486.52358 c -12,-2 -24,6.00001 -24,12 0,20 10.51471,25 19,25 10,0 24,-12.90956 24,-25 0,-6 -8.14967,-10.19161 -19,-12 z"
         style="fill:#cccccc;fill-opacity:1;stroke:#cccccc;stroke-width:3;stroke-linecap:butt;stroke-linejoin:miter;stroke-miterlimit:4;stroke-opacity:1;stroke-dasharray:none" />
      <path
         sodipodi:nodetypes="cc"
         inkscape:connector-curvature="0"
         id="path3853"
         d="m 394.45645,496.3015 -4,0"
         style="fill:#cccccc;stroke:#cccccc;stroke-width:4;stroke-linecap:round;stroke-linejoin:miter;stroke-miterlimit:4;stroke-opacity:1;stroke-dasharray:none;fill-opacity:1" />
      <path
         style="fill:#cccccc;fill-opacity:1;stroke:#cccccc;stroke-width:3;stroke-linecap:butt;stroke-linejoin:miter;stroke-miterlimit:4;stroke-opacity:1;stroke-dasharray:none"
         d="m 369.49706,486.52358 c 12,-2 24,6.00001 24,12 0,20 -10.51471,25 -19,25 -10,0 -24,-12.90956 -24,-25 0,-6 8.14967,-10.19161 19,-12 z"
         id="path3855"
         inkscape:connector-curvature="0"
         sodipodi:nodetypes="sssss" />
      <g
         id="g3857"
         transform="translate(0,-40)"
         style="fill:#cccccc;fill-opacity:1;stroke:#cccccc;stroke-opacity:1">
        <path
           sodipodi:nodetypes="cc"
           inkscape:connector-curvature="0"
           id="path3859"
           d="m 325.49535,528.52358 40,0"
           style="fill:#cccccc;stroke:#cccccc;stroke-width:3;stroke-linecap:round;stroke-linejoin:miter;stroke-miterlimit:4;stroke-opacity:1;stroke-dasharray:none;fill-opacity:1" />
        <path
           sodipodi:nodetypes="cc"
           inkscape:connector-curvature="0"
           id="path3861"
           d="m 338.49535,536.52358 13,0"
           style="fill:#cccccc;stroke:#cccccc;stroke-width:2;stroke-linecap:round;stroke-linejoin:miter;stroke-miterlimit:4;stroke-opacity:1;stroke-dasharray:none;fill-opacity:1" />
        <path
           style="fill:#cccccc;stroke:#cccccc;stroke-width:3;stroke-linecap:round;stroke-linejoin:miter;stroke-miterlimit:4;stroke-opacity:1;stroke-dasharray:none;fill-opacity:1"
           d="m 295.53596,536.3015 4,0"
           id="path3863"
           inkscape:connector-curvature="0"
           sodipodi:nodetypes="cc" />
        <path
           sodipodi:nodetypes="sssss"
           inkscape:connector-curvature="0"
           id="path3865"
           d="m 320.49535,526.52358 c -12,-2 -24,6.00001 -24,12 0,20 10.51471,25 19,25 10,0 24,-12.90956 24,-25 0,-6 -8.14967,-10.19161 -19,-12 z"
           style="fill:#cccccc;fill-opacity:1;stroke:#cccccc;stroke-width:2;stroke-linecap:butt;stroke-linejoin:miter;stroke-miterlimit:4;stroke-opacity:1;stroke-dasharray:none" />
        <path
           sodipodi:nodetypes="cc"
           inkscape:connector-curvature="0"
           id="path3867"
           d="m 394.45645,536.3015 -4,0"
           style="fill:#cccccc;stroke:#cccccc;stroke-width:3;stroke-linecap:round;stroke-linejoin:miter;stroke-miterlimit:4;stroke-opacity:1;stroke-dasharray:none;fill-opacity:1" />
        <path
           style="fill:#cccccc;fill-opacity:1;stroke:#cccccc;stroke-width:2;stroke-linecap:butt;stroke-linejoin:miter;stroke-miterlimit:4;stroke-opacity:1;stroke-dasharray:none"
           d="m 369.49706,526.52358 c 12,-2 24,6.00001 24,12 0,20 -10.51471,25 -19,25 -10,0 -24,-12.90956 -24,-25 0,-6 8.14967,-10.19161 19,-12 z"
           id="path3869"
           inkscape:connector-curvature="0"
           sodipodi:nodetypes="sssss" />
      </g>
    </g>
  </g>
</svg>
